<svg xmlns="http://www.w3.org/2000/svg" width="24" height="24" viewBox="0 0 24 24">
  <g id="组_5983" data-name="组 5983" transform="translate(2535 731)">
    <rect id="矩形_8563" data-name="矩形 8563" width="24" height="24" transform="translate(-2535 -731)" fill="#fff" opacity="0"/>
    <path id="路径_4584" data-name="路径 4584" d="M98.5,453.25v-3.324a2.426,2.426,0,0,0-2.426-2.426H92.75" transform="translate(-2420.25 -275.75) rotate(180)" fill="none" stroke="#d4d4d4" stroke-miterlimit="10" stroke-width="1.5"/>
    <path id="路径_4585" data-name="路径 4585" d="M87.25,447.5H83.926a2.426,2.426,0,0,0-2.426,2.426v3.324" transform="translate(-2445.75 -275.75) rotate(180)" fill="none" stroke="#d4d4d4" stroke-miterlimit="10" stroke-width="1.5"/>
    <path id="路径_4586" data-name="路径 4586" d="M81.5,458.75v3.324a2.426,2.426,0,0,0,2.426,2.426H87.25" transform="translate(-2445.75 -250.25) rotate(180)" fill="none" stroke="#d4d4d4" stroke-miterlimit="10" stroke-width="1.5"/>
    <path id="路径_4587" data-name="路径 4587" d="M92.75,464.5h3.324a2.426,2.426,0,0,0,2.426-2.426V458.75" transform="translate(-2420.25 -250.25) rotate(180)" fill="none" stroke="#d4d4d4" stroke-miterlimit="10" stroke-width="1.5"/>
  </g>
</svg>
