<?xml version="1.0" standalone="no"?><!DOCTYPE svg PUBLIC "-//W3C//DTD SVG 1.1//EN" "http://www.w3.org/Graphics/SVG/1.1/DTD/svg11.dtd"><svg class="icon" style="" viewBox="0 0 1024 1024" version="1.1" xmlns="http://www.w3.org/2000/svg" p-id="34885" xmlns:xlink="http://www.w3.org/1999/xlink" width="16" height="16"><defs><style type="text/css"><![CDATA[

]]></style></defs><path d="M893.758704 156.870794c0-51.182706-41.640376-92.823082-92.823082-92.823082L220.794685 64.047712c-51.182706 0-92.823082 41.640376-92.823082 92.823082l0 707.773825c0 51.182706 41.640376 92.823082 92.823082 92.823082l227.279377 0 0-0.013303c17.458627-0.190335 31.55467-14.394848 31.55467-31.898501s-14.096043-31.708166-31.55467-31.898501l0-0.004093-0.167822 0c-0.062422 0-0.122797-0.005117-0.185218-0.005117s-0.122797 0.004093-0.185218 0.005117L220.794685 893.653303c-15.954367 0-29.006637-13.053294-29.006637-29.006637L191.788048 156.870794c0-15.954367 13.053294-29.006637 29.006637-29.006637l580.14196 0c15.954367 0 29.006637 13.053294 29.006637 29.006637l0 482.765165-162.439626 0c-51.182706 0-92.823082 41.640376-92.823082 92.823082l0 162.439626 0 63.815421 63.815421 0 0.208754 0 18.690688-18.690688 217.671555-217.671555 18.690688-18.690688 0-0.208754 0-63.807235 0 0L893.75768 156.870794zM803.337321 703.480033l-164.841326 164.782997L638.495996 732.458017c0-16.019859 12.986779-29.006637 29.006637-29.006637l162.439626 0L803.337321 703.480033zM349.448834 354.596064l324.879252 0c15.954367 0 29.006637-13.053294 29.006637-29.006637l0-5.801123c0-15.954367-13.053294-29.006637-29.006637-29.006637l-324.879252 0c-15.954367 0-29.006637 13.053294-29.006637 29.006637l0 5.801123C320.442196 341.54277 333.494467 354.596064 349.448834 354.596064zM320.442196 453.509864c0 15.954367 13.053294 29.006637 29.006637 29.006637l324.879252 0c15.954367 0 29.006637-13.053294 29.006637-29.006637l0-5.801123c0-15.954367-13.053294-29.006637-29.006637-29.006637l-324.879252 0c-15.954367 0-29.006637 13.053294-29.006637 29.006637L320.442196 453.509864z" style="fill:#17bf16" p-id="34886"></path></svg>