<?xml version="1.0" encoding="utf-8"?>
<!-- Generated by IcoMoon.io -->
<!DOCTYPE svg PUBLIC "-//W3C//DTD SVG 1.1//EN" "http://www.w3.org/Graphics/SVG/1.1/DTD/svg11.dtd">
<svg version="1.1" xmlns="http://www.w3.org/2000/svg" xmlns:xlink="http://www.w3.org/1999/xlink" width="48" height="48" viewBox="0 0 48 48">
<path fill="#25b5ff" d="M24 2q4.484 0 8.555 1.742t7.016 4.687 4.688 7.016 1.742 8.555-1.742 8.555-4.688 7.016-7.016 4.688-8.555 1.742-8.555-1.742-7.016-4.688-4.688-7.016-1.742-8.555 1.742-8.555 4.688-7.016 7.016-4.688 8.555-1.742zM24 6q-3.656 0-6.992 1.43t-5.742 3.836-3.836 5.742-1.43 6.992 1.43 6.992 3.836 5.742 5.742 3.836 6.992 1.43 6.992-1.43 5.742-3.836 3.836-5.742 1.43-6.992-1.43-6.992-3.836-5.742-5.742-3.836-6.992-1.43zM24 14q0.828 0 1.414 0.586t0.586 1.414v6h6q0.828 0 1.414 0.586t0.586 1.414-0.586 1.414-1.414 0.586h-6v6q0 0.828-0.586 1.414t-1.414 0.586-1.414-0.586-0.586-1.414v-6h-6q-0.828 0-1.414-0.586t-0.586-1.414 0.586-1.414 1.414-0.586h6v-6q0-0.828 0.586-1.414t1.414-0.586z"></path>
</svg>
