<?xml version="1.0" encoding="utf-8"?>
<!-- Generator: Adobe Illustrator 21.0.0, SVG Export Plug-In . SVG Version: 6.00 Build 0)  -->
<svg version="1.1" id="图层_1" xmlns="http://www.w3.org/2000/svg" xmlns:xlink="http://www.w3.org/1999/xlink" x="0px" y="0px"
	 viewBox="0 0 16 16" style="enable-background:new 0 0 16 16;fill:#10aeff" xml:space="preserve">
<path d="M14.3,6v3.5l0,0c-0.1,1-0.4,1.4-1.4,2.1c0,0.2,0,1.8,0,1.8c0.2,0.2-1.1-1-2.1-1H9.4c-0.8,0-1.5-0.1-2.1-0.3l-1.5,0
	c1,0.7,2.2,1,3.6,1h1.4c1,0,1.7,1.3,2.8,1.4l0-2.4c1.2-1,1.4-1.8,1.4-3.5C15,7.6,14.8,6.7,14.3,6z M8.4,11.3c3.1,0,5.6-1.8,5.6-4.9
	c0-3.1-2.5-4.9-5.6-4.9H6.6C3.5,1.5,1,3.3,1,6.4c0,1.8,0.8,2.7,2.2,3.7c0.5,0.4-0.2,2.5-0.1,2.6c0.1,0.1,2.1-1.4,3.2-1.4L8.4,11.3
	L8.4,11.3z M3.8,11.7c0,0,0.7-1.5,0.4-1.7C2.7,9.1,1.7,8.3,1.7,6.4c0-2.7,2.2-4.2,4.9-4.2h1.8c2.7,0,4.9,1.5,4.9,4.2
	c0,2.7-2.2,4.2-4.9,4.2l-2.1,0C5.2,10.6,3.6,11.9,3.8,11.7z"/>
</svg>
