<?xml version="1.0" standalone="no"?><!DOCTYPE svg PUBLIC "-//W3C//DTD SVG 1.1//EN" "http://www.w3.org/Graphics/SVG/1.1/DTD/svg11.dtd"><svg class="icon" style="" viewBox="0 0 1024 1024" version="1.1" xmlns="http://www.w3.org/2000/svg" p-id="54946" xmlns:xlink="http://www.w3.org/1999/xlink" width="16" height="16"><defs><style type="text/css"><![CDATA[

]]></style></defs><path d="M829.185217 747.840356c-22.187211 10.55745 0.826865 80.221066-25.690131 102.629425-15.758538 19.173688-89.420159 7.67889-97.411485 11.340279-22.766426-5.089925 9.756601-46.829562-17.008046-42.656519-42.990855 12.410658-72.679207 13.995759-122.69944 13.995759-17.790907 0-35.313697-0.847298-52.567347-2.521426-4.776989-0.447185-0.045027 26.158776-16.294772 31.157627-29.821388 1.071402-58.661385 1.87572-70.58032-0.422625-37.812713 1.027399-16.249745-46.739511-25.936758-54.172807-5.73689-1.873674-11.428752-3.859911-17.031583-5.91471-9.41992 2.499937 4.307272 18.659989-9.48746 30.132274-23.28117 10.266831-99.954505 7.745405-108.883217-10.400884-14.129368-48.323589 16.875011-69.170382 8.839681-77.205383-31.295009-22.320355-58.660361-48.190559-81.205744-76.827783-45.357859-49.841152-73.348477-9.194406-114.598617-46.269813-25.223485-34.129308-6.294614-125.977179 1.963805-136.75771 17.322214-22.454408 29.665839 6.561439 43.973269-31.561833 6.026497-83.880409 47.410695-160.037926 112.232636-218.763422-31.518099-32.119535-91.406478-79.483262-24.643246-117.54002 64.77589-13.147438 190.267024 49.305963 190.267024 49.305963s74.68804-23.034623 156.897688-23.034623c233.772623 0 396.808353 153.965627 396.808353 343.891258C956.128482 600.324628 931.28466 682.44188 829.185217 747.840356zM302.244846 310.581618c-26.53951 0-48.034938 21.49557-48.034938 48.03297 0 26.539446 21.495427 48.056506 48.034938 48.056506 26.540534 0 48.035961-21.517059 48.035961-48.056506C350.280807 332.077188 328.784356 310.581618 302.244846 310.581618zM734.051705 281.676287c0 0-94.485733-32.253588-193.592905-27.65485-15.290868 0-27.678497 12.388145-27.678497 27.65485 0 15.289218 12.386606 27.677363 27.678497 27.677363 0 0 101.427103-9.218966 193.592905 27.65485 15.290868 0 27.678497-12.388145 27.678497-27.65485C761.730202 294.064432 749.343596 281.676287 734.051705 281.676287z" style="fill:#fff" p-id="54947"></path></svg>