<?xml version="1.0" standalone="no"?><!DOCTYPE svg PUBLIC "-//W3C//DTD SVG 1.1//EN" "http://www.w3.org/Graphics/SVG/1.1/DTD/svg11.dtd"><svg class="icon" style="" viewBox="0 0 1025 1024" version="1.1" xmlns="http://www.w3.org/2000/svg" p-id="11715" xmlns:xlink="http://www.w3.org/1999/xlink" width="16.015625" height="16"><defs><style type="text/css"><![CDATA[

]]></style></defs><path d="M728.563 409.519h-432.773c-129.112 0-233.789 114.697-233.789 256.114s104.678 256.114 233.701 256.114h432.862c129.112 0 233.789-114.697 233.789-256.114s-104.678-256.114-233.789-256.114v0zM373.66 699.822h-51.943v51.24c0 18.896-15.469 34.19-34.629 34.19-19.072 0-34.629-15.293-34.629-34.19v-51.24h-51.943c-19.161 0-34.628-15.293-34.628-34.102 0-18.896 15.469-34.19 34.628-34.19h51.943v-51.24c0-18.896 15.469-34.102 34.629-34.102s34.629 15.293 34.629 34.102v51.24h51.943c19.161 0 34.629 15.293 34.629 34.19 0 18.809-15.469 34.102-34.629 34.102v0zM650.692 699.822c-19.161 0-34.629-15.293-34.629-34.102 0-18.896 15.469-34.19 34.629-34.19 19.161 0 34.629 15.293 34.629 34.19 0 18.809-15.469 34.102-34.629 34.102v0zM737.263 785.164c-19.161 0-34.629-15.293-34.629-34.19s15.469-34.102 34.629-34.102c19.161 0 34.629 15.293 34.629 34.102 0 18.896-15.557 34.19-34.629 34.19v0zM737.263 614.481c-19.161 0-34.629-15.293-34.629-34.19s15.469-34.102 34.629-34.102c19.161 0 34.629 15.293 34.629 34.102 0 18.896-15.557 34.19-34.629 34.19v0zM823.836 699.822c-19.161 0-34.628-15.293-34.628-34.102 0-18.896 15.469-34.19 34.628-34.19 19.161 0 34.629 15.293 34.629 34.19 0 18.809-15.557 34.102-34.629 34.102v0zM754.578 153.494v-51.24h-69.258v38.408c0 138.428-207.773-18.193-207.773 166.553v51.24h69.258c-13.711-188.789 207.773 17.578 207.773-204.961v0z" style="fill:#fff" p-id="11716"></path></svg>