<?xml version="1.0" standalone="no"?><!DOCTYPE svg PUBLIC "-//W3C//DTD SVG 1.1//EN" "http://www.w3.org/Graphics/SVG/1.1/DTD/svg11.dtd"><svg class="icon" style="" viewBox="0 0 1024 1024" version="1.1" xmlns="http://www.w3.org/2000/svg" p-id="17616" xmlns:xlink="http://www.w3.org/1999/xlink" width="16" height="16"><defs><style type="text/css"><![CDATA[

]]></style></defs><path d="M551.832211 638.205129V959.557682h319.40717c25.624778 0 46.411698-18.939831 46.411698-42.5752V638.205129H551.832211z m-446.881917 0v278.777353c0 23.635369 20.788968 42.5752 46.574495 42.5752h321.18054V638.205129H104.950294z m806.256451-309.858416H690.424304c34.165006-18.617307 63.010927-38.205257 76.386965-50.348537 53.343402-49.05025 53.343402-128.863135-0.16075-177.917481-51.891532-47.435583-142.138832-47.435583-194.030364 0-7.413954 6.799622-35.614827 40.148591-61.237558 81.430624-25.784504-41.282032-53.987425-74.631001-61.239605-81.430624-51.891532-47.435583-141.977059-47.597357-194.030365 0-53.503128 49.054346-53.503128 129.029005 0 178.079255 13.215288 12.141232 42.222983 31.568432 76.226215 50.185739H113.169021c-25.62273 0-46.411698 18.940855-46.411698 42.578272v146.510822c0 20.882141 16.599229 37.395364 38.193994 41.119235h367.754012V328.182892h79.127906v230.371126h365.818868v0.323548c22.563361-2.91193 40.12709-19.911498 40.12709-41.442783V370.923961c0-23.636393-20.787944-42.577247-46.572448-42.577248zM321.864495 217.938087c-17.404003-15.867151-17.404003-41.768378 0-57.632457 8.218728-7.611564 19.499896-11.819732 31.264339-11.819732 11.764442 0 23.044587 4.208169 31.26229 11.819732 26.752076 24.443214 69.457309 94.378678 78.805382 129.513302-41.416161-8.906778-116.675828-49.217144-141.332011-71.880845z m316.345753-57.632457c8.380501-7.611564 19.499896-11.819732 31.425089-11.819732 11.926216 0 23.045611 4.208169 31.426112 11.819732 17.244277 15.864079 17.244277 41.765306 0 57.469659-24.817956 22.825476-100.237349 63.135841-141.493785 72.042619 9.347049-35.132577 52.053306-105.06804 78.642584-129.512278z" fill="#fff" p-id="17617"></path></svg>