<?xml version="1.0" encoding="utf-8"?>
<!-- Generator: Adobe Illustrator 21.0.0, SVG Export Plug-In . SVG Version: 6.00 Build 0)  -->
<svg version="1.1" id="图层_1" xmlns="http://www.w3.org/2000/svg" xmlns:xlink="http://www.w3.org/1999/xlink" x="0px" y="0px"
	 viewBox="0 0 16 16" style="enable-background:new 0 0 16 16;fill:#fff" xml:space="preserve">
<style type="text/css">
	.st0{fill:none;}
</style>
<rect class="st0" width="16" height="16"/>
<g>
	<path d="M5,2.2c0.1,0.1,0.3,0.2,0.4,0.3c0.1,0.1,0.2,0.3,0.3,0.4C5.8,3,5.9,3.1,5.9,3.2C6,3.3,6.1,3.4,6.1,3.5
		c0.1,0.1,0.1,0.2,0.2,0.4h3.2c0.1-0.1,0.1-0.2,0.2-0.3c0.1-0.1,0.1-0.2,0.2-0.3C10,3.2,10,3.1,10.1,3c0.1-0.1,0.2-0.3,0.3-0.4
		c0.1-0.1,0.3-0.3,0.4-0.4C10.9,2.2,11,2.1,11,2.1c0.1-0.1,0.1-0.2,0.1-0.2s0-0.2,0-0.2S11,1.4,10.9,1.4c-0.1,0-0.2,0-0.2,0
		c-0.1,0-0.1,0-0.2,0.1c-0.1,0-0.1,0.1-0.2,0.1c-0.1,0-0.2,0-0.3,0c-0.1,0-0.2,0-0.3-0.1c-0.1,0-0.1-0.1-0.2-0.1
		C9.5,1.3,9.4,1.3,9.4,1.2C9.3,1.1,9.2,1.1,9.1,1.1C8.9,1,8.8,1,8.6,1C8.5,1.1,8.4,1.2,8.3,1.3C8.2,1.4,8.1,1.4,8,1.5
		c0,0-0.1,0-0.1,0c-0.1,0-0.1-0.1-0.2-0.1c-0.1,0-0.1-0.1-0.1-0.1c0,0-0.1-0.1-0.1-0.1C7.4,1.1,7.3,1,7.1,1C7,1,6.8,1,6.7,1.1
		C6.5,1.2,6.4,1.3,6.3,1.4C6.2,1.5,6.1,1.5,6,1.6c-0.1,0-0.2,0-0.3,0S5.5,1.5,5.4,1.4c-0.1,0-0.2-0.1-0.3-0.1C5,1.4,5,1.4,4.9,1.4
		C4.7,1.6,4.7,1.7,4.7,1.9C4.8,2,4.9,2.1,5,2.2z"/>
	<rect x="8.6" y="8.2" width="1.3" height="1.5"/>
	<path d="M13.4,9.5c-0.1-0.5-0.2-1-0.4-1.3c-0.2-0.4-0.4-0.7-0.7-1c-0.3-0.3-0.5-0.5-0.8-0.8c-0.3-0.2-0.6-0.5-0.8-0.7
		s-0.4-0.4-0.6-0.6C10,4.9,9.8,4.7,9.7,4.6H6.2C6.1,4.8,5.9,4.9,5.8,5.1C5.6,5.3,5.4,5.5,5.2,5.7S4.8,6.1,4.5,6.4
		C4.2,6.7,3.9,7,3.7,7.3C3.4,7.6,3.2,8,3,8.4C2.8,8.8,2.7,9.2,2.6,9.7c-0.1,0.5-0.1,0.9,0,1.4c0.1,0.5,0.3,0.9,0.5,1.4
		c0.3,0.5,0.6,0.9,1,1.2c0.4,0.4,1,0.7,1.6,0.9C6.4,14.9,7.2,15,8,15c0.8,0,1.5-0.1,2.1-0.3c0.6-0.2,1.2-0.5,1.6-0.8
		c0.5-0.3,0.8-0.7,1.1-1.2c0.3-0.5,0.5-0.9,0.5-1.5C13.4,10.6,13.4,10.1,13.4,9.5z M7.9,7.5h2.7v2.8H7.9V7.5z M6.9,10.3v2.5H6.3
		v-2.2c-0.2,0.5-0.5,1-0.7,1.3c-0.1-0.2-0.2-0.5-0.3-0.7c0.4-0.4,0.7-1,1-1.6H5.3V8.8h1V8.1C6,8.2,5.7,8.2,5.4,8.2
		c0-0.2-0.1-0.4-0.2-0.6C6,7.6,6.8,7.4,7.4,7.2l0.4,0.6C7.5,7.9,7.2,7.9,6.9,8v0.9h0.8v0.7H6.9v0.1c0.2,0.2,0.7,0.7,0.9,0.9
		l-0.4,0.6C7.3,10.9,7.1,10.6,6.9,10.3z M8.1,12.7c-0.1-0.1-0.4-0.3-0.6-0.4c0.4-0.4,0.6-0.9,0.8-1.5L9,11
		C8.8,11.7,8.5,12.3,8.1,12.7z M10.2,12.7c-0.1-0.4-0.4-1.1-0.7-1.7l0.6-0.2c0.3,0.5,0.6,1.2,0.8,1.6L10.2,12.7z"/>
</g>
</svg>
