<?xml version="1.0" standalone="no"?><!DOCTYPE svg PUBLIC "-//W3C//DTD SVG 1.1//EN" "http://www.w3.org/Graphics/SVG/1.1/DTD/svg11.dtd"><svg class="icon" style="" viewBox="0 0 1024 1024" version="1.1" xmlns="http://www.w3.org/2000/svg" p-id="44213" xmlns:xlink="http://www.w3.org/1999/xlink" width="16" height="16"><defs><style type="text/css"><![CDATA[

]]></style></defs><path d="M953.68192 346.14272l-57.87648-57.82528c-11.42784-11.40736-26.66496-17.42848-42.0864-17.42848-9.03168 0-18.15552 2.03776-26.59328 6.31808-11.008 5.44768-22.07744 8.23296-32.95232 8.23296-40.99072 0-74.37312-33.31072-74.37312-74.28096 0-10.87488 2.77504-21.94432 8.25344-32.89088 11.48928-22.90688 7.00416-50.5344-11.10016-68.6592l-57.74336-57.67168c-16.81408-16.81408-39.22944-26.10176-63.10912-26.10176-23.77728 0-46.19264 9.2672-63.08864 26.10176L70.30784 514.2528c-34.78528 34.7648-34.78528 91.31008 0 126.04416l57.93792 57.86624c11.38688 11.42784 26.624 17.42848 42.06592 17.42848 8.9088 0 17.8688-1.97632 26.24512-6.08256 10.78272-5.33504 21.7088-7.9872 32.45056-7.9872 41.02144 0 74.3936 33.29024 74.3936 74.27072 0 10.73152-2.69312 21.66784-8.0384 32.41984-11.2128 22.82496-6.66624 50.28864 11.33568 68.27008l58.0608 58.04032c16.86528 16.86528 39.28064 26.10176 63.09888 26.10176 23.83872 0 46.26432-9.22624 63.08864-26.10176l462.72512-462.31552C988.45696 437.46304 988.45696 380.88704 953.68192 346.14272zM385.80224 535.25504c-11.60192 11.6224-30.45376 11.6224-42.07616 0-11.60192-11.60192-11.60192-30.42304 0-42.02496L511.98976 325.12c11.63264-11.6224 30.48448-11.6224 42.07616 0 11.6224 11.60192 11.6224 30.42304 0 42.04544L385.80224 535.25504zM680.26368 493.25056 511.98976 661.32992c-11.6224 11.61216-30.43328 11.61216-42.06592 0-11.60192-11.60192-11.60192-30.43328 0-42.02496l168.2944-168.0896c11.60192-11.6224 30.45376-11.6224 42.04544 0C691.87584 462.80704 691.87584 481.62816 680.26368 493.25056z" style="fill:#fff;" p-id="44214"></path></svg>