<?xml version="1.0" standalone="no"?><!DOCTYPE svg PUBLIC "-//W3C//DTD SVG 1.1//EN" "http://www.w3.org/Graphics/SVG/1.1/DTD/svg11.dtd"><svg class="icon" style="" viewBox="0 0 1024 1024" version="1.1" xmlns="http://www.w3.org/2000/svg" p-id="28387" xmlns:xlink="http://www.w3.org/1999/xlink" width="16" height="16"><defs><style type="text/css"><![CDATA[

]]></style></defs><path d="M401.582703 287.398616 345.401146 287.398616 345.401146 343.149361 289.220612 343.149361 289.220612 398.900106 345.401146 398.900106 345.401146 454.649827 401.582703 454.649827 401.582703 398.900106 457.763237 398.900106 457.763237 343.149361 401.582703 343.149361 401.582703 287.398616ZM872.098893 450.021413c-46.575782 0-84.272335 37.464263-84.272335 83.625606 0 46.160319 37.696554 83.623559 84.272335 83.623559 46.573735 0 84.272335-37.462217 84.272335-83.623559C956.370205 487.485677 918.671605 450.021413 872.098893 450.021413L872.098893 450.021413zM591.079568 538.16287l258.883165-272.730545c19.438725-19.846 0.448208-51.40067-2.864234-52.682873l0.447185-0.447185C780.805654 135.816269 646.475226 64.399729 513.94377 64.399729c-248.209058 0-449.446315 199.697181-449.446315 445.99982s201.239304 445.998797 449.446315 445.998797c119.552863 0 227.869824-46.608527 308.379463-122.148991 8.538467-9.532097 27.808346-25.924439 14.2127-46.606481L591.079568 538.16287 591.079568 538.16287zM513.94377 900.648624c-217.196741 0-393.267828-174.721347-393.267828-390.249075 0-215.529775 176.072111-390.251122 393.267828-390.251122 111.237477 0 211.127512 46.440705 282.5901 120.141264L513.94377 540.001751l258.82586 263.47474C703.611527 863.743086 613.270986 900.648624 513.94377 900.648624L513.94377 900.648624z" style="fill:#17bf16" p-id="28388"></path></svg>