<?xml version="1.0" standalone="no"?><!DOCTYPE svg PUBLIC "-//W3C//DTD SVG 1.1//EN" "http://www.w3.org/Graphics/SVG/1.1/DTD/svg11.dtd"><svg class="icon" style="" viewBox="0 0 1024 1024" version="1.1" xmlns="http://www.w3.org/2000/svg" p-id="10933" xmlns:xlink="http://www.w3.org/1999/xlink" width="16" height="16"><defs><style type="text/css"><![CDATA[

]]></style></defs><path d="M884.312052 115.169019 695.841563 115.169019c-44.429909 0-106.436124 26.965142-137.839345 59.95858L241.416863 507.414565c-31.402197 32.994462-31.402197 86.921675 0 119.92023L477.161029 874.855168c31.403221 32.994462 82.832544 32.994462 114.233718 0l316.526003-332.342224c31.402197-32.990369 57.115835-98.070596 57.115835-144.719032L965.036585 199.935612C965.037609 153.287175 928.741961 115.169019 884.312052 115.169019L884.312052 115.169019 884.312052 115.169019 884.312052 115.169019zM776.565073 397.792888c-44.601824 0-80.724533-38.002522-80.724533-84.766592 0-46.759977 36.122709-84.762499 80.724533-84.762499s80.725556 38.002522 80.725556 84.762499C857.290629 359.791389 821.166897 397.792888 776.565073 397.792888L776.565073 397.792888 776.565073 397.792888 776.565073 397.792888zM122.578268 587.342965l288.084231 302.417681c-30.495548 16.95209-69.40472 11.945053-95.003747-14.905478L79.855234 627.335818c-31.403221-32.998555-31.403221-86.925768 0-119.92023l316.52498-332.342224c31.403221-32.993438 93.412506-59.959603 137.841392-59.959603L122.578268 547.350113C112.108822 558.38647 112.108822 576.360843 122.578268 587.342965L122.578268 587.342965 122.578268 587.342965 122.578268 587.342965zM122.578268 587.342965" style="fill:#fff" p-id="10934"></path></svg>