<?xml version="1.0" standalone="no"?><!DOCTYPE svg PUBLIC "-//W3C//DTD SVG 1.1//EN" "http://www.w3.org/Graphics/SVG/1.1/DTD/svg11.dtd"><svg class="icon" style="" viewBox="0 0 1024 1024" version="1.1" xmlns="http://www.w3.org/2000/svg" p-id="18354" xmlns:xlink="http://www.w3.org/1999/xlink" width="16" height="16"><defs><style type="text/css"><![CDATA[

]]></style></defs><path d="M447.517383 56.45785 83.929528 56.45785c-16.019859 0-29.006637 12.986779-29.006637 29.006637l0 363.587855c0 16.019859 12.986779 29.006637 29.006637 29.006637l363.587855 0c16.019859 0 29.006637-12.986779 29.006637-29.006637L476.524021 85.46551C476.525044 69.444629 463.537242 56.45785 447.517383 56.45785zM398.753773 398.753773l-266.059612 0 0-262.989693 266.059612 0L398.753773 398.753773zM267.77058 265.212314m-54.235229 0a53 53 0 1 0 108.470457 0 53 53 0 1 0-108.470457 0ZM940.384627 56.45785 576.796772 56.45785c-16.019859 0-29.006637 12.986779-29.006637 29.006637l0 363.587855c0 16.019859 12.986779 29.006637 29.006637 29.006637l363.587855 0c16.019859 0 29.006637-12.986779 29.006637-29.006637L969.391265 85.46551C969.392288 69.444629 956.404486 56.45785 940.384627 56.45785zM891.621017 398.753773l-266.059612 0 0-262.989693 266.059612 0L891.621017 398.753773zM760.637824 265.212314m-54.235229 0a53 53 0 1 0 108.470457 0 53 53 0 1 0-108.470457 0ZM449.563996 547.790134 85.97614 547.790134c-16.019859 0-29.006637 12.986779-29.006637 29.006637l0 363.587855c0 16.019859 12.986779 29.006637 29.006637 29.006637l363.587855 0c16.019859 0 29.006637-12.986779 29.006637-29.006637L478.570633 576.796772C478.571656 560.776913 465.584877 547.790134 449.563996 547.790134zM400.800385 890.086058l-266.059612 0 0-262.989693 266.059612 0L400.800385 890.086058zM269.817192 756.544599m-54.235229 0a53 53 0 1 0 108.470457 0 53 53 0 1 0-108.470457 0ZM706.402595 876.637768l89.027639 0 0 92.75452-89.027639 0 0-92.75452ZM880.364649 969.392288l60.019978 0c16.019859 0 29.007661-12.986779 29.007661-29.006637l0-63.74686-89.027639 0L880.364649 969.392288zM940.384627 547.644825l-48.397267 0 0 161.682379-84.934414 0 0-161.682379L575.116503 547.644825c-16.019859 0-29.006637 12.986779-29.006637 29.006637l0 363.733165c0 16.019859 12.986779 29.006637 29.006637 29.006637l49.918923 0 0-92.75452 0-84.934414 0-59.863413 81.366146 0 0 59.863413 262.989693 0L969.391265 576.652486C969.392288 560.631604 956.405509 547.644825 940.384627 547.644825z" p-id="18355"></path></svg>