<?xml version="1.0" standalone="no"?><!DOCTYPE svg PUBLIC "-//W3C//DTD SVG 1.1//EN" "http://www.w3.org/Graphics/SVG/1.1/DTD/svg11.dtd"><svg class="icon" style="" viewBox="0 0 1024 1024" version="1.1" xmlns="http://www.w3.org/2000/svg" p-id="23512" xmlns:xlink="http://www.w3.org/1999/xlink" width="16" height="16"><defs><style type="text/css"><![CDATA[

]]></style></defs><path d="M512.096191 65.700351c-246.698658 0-446.687482 199.988824-446.687482 446.687482s199.988824 446.690552 446.687482 446.690552c95.853092 0 184.650487-30.196743 257.409604-81.59025 0.980327-11.466146 2.509147-48.361451-15.794731-68.079538-65.899896 53.673433-149.997246 85.85846-241.614873 85.85846-211.457016 0-382.876154-171.422208-382.876154-382.879224s171.419138-382.876154 382.876154-382.876154 382.876154 171.419138 382.876154 382.876154c0 62.070684-14.776542 120.688733-40.993646 172.537611 14.491039 20.482497 34.298154 33.425274 54.051033 34.44858 32.414247-61.877279 50.754964-132.288932 50.754964-206.986191C958.783673 265.689175 758.794849 65.700351 512.096191 65.700351zM667.017586 298.716382c-12.588713-9.7869-30.365588-6.713912-39.706327 6.860245L510.829338 460.408995c-0.567935 0.824785-1.088798 1.670036-1.568728 2.53166l-114.304326-145.422044c-10.41521-14.20963-30.385031-17.288758-44.594661-6.870478-14.21577 10.41828-17.291828 30.381961-6.873548 44.597731l98.444103 125.238352L384.470465 480.484216c-17.621333 0-31.906687 14.280238-31.906687 31.903617 0 17.621333 14.286378 31.906687 31.906687 31.906687l95.718015 0 0 63.811328-63.811328 0c-17.621333 0-31.906687 14.286378-31.906687 31.906687 0 17.624403 14.286378 31.903617 31.906687 31.903617l63.811328 0 0 63.814398c0 17.621333 14.283308 31.906687 31.906687 31.906687 17.621333 0 31.906687-14.286378 31.906687-31.906687l0-63.814398 63.811328 0c17.621333 0 31.906687-14.280238 31.906687-31.903617 0-17.621333-14.286378-31.906687-31.906687-31.906687l-63.811328 0 0-63.811328 95.718015 0c17.621333 0 31.903617-14.286378 31.903617-31.906687 0-17.624403-14.283308-31.903617-31.903617-31.903617l-71.746044 0 104.920608-139.461285C682.238242 327.444681 679.606299 308.503283 667.017586 298.716382z" style="fill:#ffbe00" p-id="23513"></path></svg>