<?xml version="1.0" standalone="no"?><!DOCTYPE svg PUBLIC "-//W3C//DTD SVG 1.1//EN" "http://www.w3.org/Graphics/SVG/1.1/DTD/svg11.dtd"><svg class="icon" style="" viewBox="0 0 1024 1024" version="1.1" xmlns="http://www.w3.org/2000/svg" p-id="36393" xmlns:xlink="http://www.w3.org/1999/xlink" width="16" height="16"><defs><style type="text/css"><![CDATA[

]]></style></defs><path d="M788.407284 648.203078c45.047985 0 85.74999 17.620309 115.443265 45.494147l0.496304 0c29.173436 28.395724 47.621601 67.587328 47.621601 110.643959 0 86.156242-73.726142 156.160619-163.562193 156.160619-89.837074 0-163.018817-70.004377-163.018817-156.160619 0-17.845437 3.069919-34.991955 8.691963-50.9146l-173.531242-99.372242c-2.812045 2.710738-5.622044 5.895267-8.456602 8.334829l-2.315742 1.718131c-39.897685 37.926798-94.677313 60.924581-155.081031 60.924581-122.341373 0-222.667336-96.1652-222.667336-213.403345 0-116.989481 100.325963-212.701356 222.667336-212.701356 61.418838 0 117.213585 24.01188 157.396773 62.436004l0 0.473791 0-0.473791c2.834558 2.690272 5.644557 5.872754 8.456602 8.56098l173.531242-99.617835c-5.622044-15.655562-8.691963-32.80208-8.691963-50.42239 0-86.380346 73.702606-156.384723 163.018817-156.384723 89.835028 0 163.562193 70.004377 163.562193 156.384723 0 85.412298-73.726142 155.915026-163.562193 155.915026-44.789089 0-85.72543-17.620309-115.420753-46.26572l-1.039679-0.721431-172.489516 98.873892c11.764951 25.705452 17.904789 54.326303 17.904789 83.941807 0 29.864168-6.14086 58.507532-17.904789 84.688821l172.489516 98.375541 1.039679-0.994654 0 0 0.757247-0.225127C703.177134 665.348574 743.618195 648.203078 788.407284 648.203078L788.407284 648.203078zM853.156984 742.671637 853.156984 742.671637c-16.370853-15.902178-39.425941-25.705452-64.7497-25.705452-24.827455 0-47.860031 9.803273-64.253396 25.705452l0 0c-16.370853 15.678074-26.859741 37.453007-26.859741 61.669548 0 47.732118 41.198308 87.126336 91.113137 87.126336 50.151213 0 91.37101-39.146579 91.37101-87.126336C879.779318 780.124643 869.526813 758.349711 853.156984 742.671637L853.156984 742.671637 853.156984 742.671637zM401.163659 410.064376 401.163659 410.064376c-27.118638-25.707498-64.490803-42.104957-106.466823-42.104957-82.939991 0-150.238746 64.627926-150.238746 143.667074 0 79.56001 67.298755 144.165424 150.238746 144.165424 40.702004 0 77.812203-15.676028 104.930841-40.636512l1.535983-1.718131c27.142174-25.934672 44.032866-61.919235 44.032866-101.811804C445.196525 472.457402 428.305833 435.750385 401.163659 410.064376L401.163659 410.064376 401.163659 410.064376zM788.407284 132.26028 788.407284 132.26028c-49.91483 0-91.113137 38.672788-91.113137 87.62264 0 16.176424 5.103228 32.05609 13.558807 45.045939l0.520863 1.468444 0 0c3.330862 4.381797 7.158027 9.057283 11.007705 13.461593l1.772366 1.221828c16.393365 16.151865 39.425941 25.434276 64.253396 25.434276 50.151213 0 91.37101-38.650275 91.37101-86.632079C879.779318 170.933067 838.817394 132.26028 788.407284 132.26028L788.407284 132.26028z" style="fill:#3e3f44" p-id="36394"></path></svg>