<?xml version="1.0" encoding="utf-8"?>
<!-- Generator: Adobe Illustrator 21.0.0, SVG Export Plug-In . SVG Version: 6.00 Build 0)  -->
<svg version="1.1" id="图层_1" xmlns="http://www.w3.org/2000/svg" xmlns:xlink="http://www.w3.org/1999/xlink" x="0px" y="0px"
	 viewBox="0 0 16 16" style="enable-background:new 0 0 16 16;fill:#ffbe00" xml:space="preserve">
<style type="text/css">
	.st0{fill:none;}
</style>
<rect x="1" y="1" class="st0" width="14" height="14"/>
<path d="M12.5,13.6c0,0.4-0.3,0.7-0.7,0.7H4.3c-0.4,0-0.7-0.3-0.7-0.7V5.2h1.2v1c0,0.2,0.2,0.4,0.4,0.4c0.2,0,0.4-0.2,0.4-0.4v-1h5
	v1c0,0.2,0.2,0.4,0.4,0.4s0.4-0.2,0.4-0.4v-1h1.2V13.6z M5.5,4c0-1.3,1.1-2.3,2.5-2.3s2.5,1.1,2.5,2.3v0.5h-5V4z M11.2,4.5V4.1
	C11.2,2.4,9.8,1,8,1C7.8,1,7.6,1,7.4,1.1C5.9,1.3,4.8,2.6,4.8,4v0.5H3.2C3,4.5,2.8,4.7,2.8,5v8.6c0,0.8,0.7,1.4,1.5,1.4h7.5
	c0.8,0,1.5-0.6,1.5-1.4V5c0-0.3-0.3-0.5-0.6-0.5H11.2z"/>
</svg>
