<?xml version="1.0" encoding="utf-8"?>
<!-- Generator: Adobe Illustrator 21.0.0, SVG Export Plug-In . SVG Version: 6.00 Build 0)  -->
<svg version="1.1" id="图层_1" xmlns="http://www.w3.org/2000/svg" xmlns:xlink="http://www.w3.org/1999/xlink" x="0px" y="0px"
	 viewBox="0 0 16 16" style="enable-background:new 0 0 16 16;fill:#fff" xml:space="preserve">
<path d="M8,2.5c-3,0-5.5,0.8-5.5,1.7v1.4C2.5,6.5,5,7.3,8,7.3c3,0,5.5-0.8,5.5-1.7V4.2C13.5,3.3,11,2.5,8,2.5z M8,8
	C5.5,8,3.4,7.5,2.7,6.8C2.6,7,2.5,7.1,2.5,7.3v1.4c0,0.9,2.5,1.7,5.5,1.7c3,0,5.5-0.8,5.5-1.7V7.3c0-0.2-0.1-0.4-0.3-0.5
	C12.5,7.5,10.4,8,8,8z M8,11.1c-2.5,0-4.5-0.5-5.2-1.2c-0.2,0.2-0.2,0.3-0.2,0.5v1.4c0,0.9,2.5,1.7,5.5,1.7c3,0,5.5-0.8,5.5-1.7
	v-1.4c0-0.2-0.1-0.4-0.3-0.5C12.5,10.6,10.4,11.1,8,11.1z"/>
</svg>
