<?xml version="1.0" standalone="no"?><!DOCTYPE svg PUBLIC "-//W3C//DTD SVG 1.1//EN" "http://www.w3.org/Graphics/SVG/1.1/DTD/svg11.dtd"><svg class="icon" style="" viewBox="0 0 1024 1024" version="1.1" xmlns="http://www.w3.org/2000/svg" p-id="1812" xmlns:xlink="http://www.w3.org/1999/xlink" width="16" height="16"><defs><style type="text/css"><![CDATA[

]]></style></defs><path d="M413.666 599.534c-3.26 1.701-6.944 2.693-10.828 2.693-9.014 0-16.865-5.159-20.977-12.784l-1.587-3.572-65.65-149.499c-0.708-1.616-1.162-3.458-1.162-5.244 0-6.889 5.386-12.473 12.019-12.473 2.693 0 5.187 0.907 7.2 2.466l77.499 57.231c5.641 3.855 12.416 6.095 19.701 6.095 4.337 0 8.476-0.822 12.33-2.268l364.452-168.293C741.322 234.007 633.748 181.82 512 181.82c-199.247 0-360.736 139.635-360.736 311.868 0 93.969 48.585 178.555 124.639 235.701 6.095 4.535 10.091 11.962 10.091 20.324 0 2.778-0.567 5.329-1.247 7.966-6.095 23.499-15.817 61.143-16.271 62.9-0.765 2.948-1.928 6.038-1.928 9.128 0 6.888 5.386 12.472 12.019 12.472 2.608 0 4.734-1.021 6.945-2.324l78.973-47.311c5.953-3.543 12.218-5.754 19.163-5.754 3.685 0 7.228 0.596 10.602 1.645 36.821 10.998 76.592 17.121 117.75 17.121 199.219 0 360.737-139.635 360.737-311.868 0-52.186-14.91-101.311-41.102-144.511l-415.333 248.77L413.666 599.534z" style="fill:#fff" p-id="1813"></path></svg>