<?xml version="1.0" encoding="utf-8"?>
<!-- Generator: Adobe Illustrator 21.0.0, SVG Export Plug-In . SVG Version: 6.00 Build 0)  -->
<svg version="1.1" id="图层_1" xmlns="http://www.w3.org/2000/svg" xmlns:xlink="http://www.w3.org/1999/xlink" x="0px" y="0px"
	 viewBox="0 0 16 16" style="fill:#FFFFFF;enable-background:new 0 0 16 16;" xml:space="preserve">
<g>
	<path d="M13.5,12H12v-1.5c0-0.3-0.2-0.5-0.5-0.5S11,10.2,11,10.5V12H9.5C9.2,12,9,12.2,9,12.5S9.2,13,9.5,13H11v1.5
		c0,0.3,0.2,0.5,0.5,0.5s0.5-0.2,0.5-0.5V13h1.5c0.3,0,0.5-0.2,0.5-0.5S13.8,12,13.5,12z"/>
	<path d="M13.9,2.4c0-0.1,0-0.2-0.1-0.2C13.7,2.1,13.6,2,13.5,2H8h0H2.5C2.4,2,2.2,2.1,2.2,2.2h0c0,0.1,0,0.1-0.1,0.2
		C2.1,2.5,1,7,1,7v0.1c0,0.7,0.4,1.4,1,1.7v4.7C2,13.8,2.2,14,2.5,14l0.1,0v0h4.9C7.8,14,8,13.8,8,13.5S7.8,13,7.5,13H3l0-4
		c0.4,0,0.8-0.2,1.1-0.5C4.5,8.8,4.9,9,5.4,9c0.5,0,1-0.2,1.3-0.5C7,8.8,7.5,9,8,9v0c0,0,0,0,0,0c0,0,0,0,0,0c0,0,0,0,0,0
		c0,0,0,0,0,0v0c0.5,0,1-0.2,1.3-0.5C9.6,8.8,10.1,9,10.6,9s1-0.2,1.3-0.5C12.2,8.8,12.7,9,13,9c0.6,0,0.7,0,1-0.2
		c0.6-0.3,1-0.9,1-1.7V7C15,7,13.9,2.5,13.9,2.4z M13.1,8c-0.5,0-0.8-0.4-0.8-0.9c0-0.2-0.2-0.4-0.4-0.4s-0.4,0.2-0.4,0.4
		C11.4,7.6,11,8,10.5,8S9.7,7.6,9.7,7.1c0-0.2-0.2-0.4-0.4-0.4S8.8,6.9,8.8,7.1C8.8,7.6,8.4,8,8,8C7.5,8,7.1,7.6,7.1,7.1
		c0-0.2-0.2-0.4-0.4-0.4S6.3,6.9,6.3,7.1C6.3,7.6,5.9,8,5.4,8S4.6,7.6,4.6,7.1c0-0.2-0.2-0.4-0.4-0.4S3.7,6.9,3.7,7.1
		C3.7,7.6,3.4,8,2.9,8C2.4,8,2,7.5,2,7l1-4h10l1,4C14,7.5,13.5,8,13.1,8z"/>
</g>
</svg>
