<?xml version="1.0" standalone="no"?><!DOCTYPE svg PUBLIC "-//W3C//DTD SVG 1.1//EN" "http://www.w3.org/Graphics/SVG/1.1/DTD/svg11.dtd"><svg class="icon" style="fill:#888888" viewBox="0 0 1024 1024" version="1.1" xmlns="http://www.w3.org/2000/svg" p-id="41536" xmlns:xlink="http://www.w3.org/1999/xlink" width="16" height="16"><defs><style type="text/css"><![CDATA[

]]></style></defs><path d="M889.583614 155.560962c-1.786693-7.514137-2.490727-11.777231-4.848425-15.614629l-0.001023-0.002047-0.001023 0c-4.973268-7.223518-13.295817-11.962449-22.728654-11.962449l-350.298178 0-1.023306 0-349.274872 0c-9.432837 0-17.756409 4.738931-22.728654 11.962449l-0.001023 0-0.001023 0.002047c-2.358721 3.837398-3.061732 8.100492-4.848425 15.614629-1.786693 7.514137-69.845765 292.554032-69.845765 292.554032l0 7.653307c0 46.38954 26.00835 86.708827 63.960731 106.651019l0 301.108872c0 17.662265 14.3181 31.980365 31.980365 31.980365l703.567014 0c17.662265 0 31.980365-14.3181 31.980365-31.980365L895.471718 562.41932c37.95238-19.942191 63.960731-60.261479 63.960731-106.651019l0-7.653307C959.430402 448.114994 891.370307 163.075099 889.583614 155.560962zM383.78485 831.54885 383.78485 703.627389l255.842922 0 0 127.921461L383.78485 831.54885zM703.58748 671.647023c0-17.662265-14.3181-31.980365-31.980365-31.980365L351.804485 639.666658c-17.662265 0-31.980365 14.3181-31.980365 31.980365l0 159.901827L191.902658 831.54885l0-256.287037c28.062126-2.434445 53.350069-14.914688 72.362075-33.897018 21.267373 21.233604 50.384527 34.342156 82.45699 34.342156 32.072463 0 61.189617-13.107529 82.458013-34.342156 21.055548 21.022803 49.807383 34.072003 81.502245 34.329876l0 0.011256c0.023536 0 0.046049 0.001023 0.068562 0.001023 0.148379 0 0.294712-0.005117 0.443092-0.005117 0.147356 0.001023 0.294712 0.005117 0.442068 0.005117 0.023536 0 0.046049-0.001023 0.068562-0.001023l0-0.011256c31.715329-0.257873 61.470003-13.30605 82.525552-34.329876 21.268396 21.233604 50.384527 34.342156 82.458013 34.342156 32.072463 0 61.189617-13.107529 82.45699-34.342156 19.012006 18.98233 44.299949 31.461549 72.362075 33.897018l0 256.287037L703.58748 831.54885 703.58748 671.647023zM835.852876 511.735987c-29.943986 0-54.220902-24.536836-54.220902-54.801117 0-15.131629-12.108782-27.370371-27.080775-27.370371-14.971993 0-27.080775 12.238742-27.080775 27.370371 0 30.264281-24.276916 54.801117-54.220902 54.801117-29.943986 0-54.220902-24.536836-54.220902-54.801117 0-15.131629-12.108782-27.370371-27.080775-27.370371-14.971993 0-27.080775 12.238742-27.080775 27.370371 0 30.264281-24.276916 54.801117-54.220902 54.801117-29.943986 0-54.220902-24.536836-54.220902-54.801117 0-15.131629-12.108782-27.370371-27.080775-27.370371-14.971993 0-27.080775 12.238742-27.080775 27.370371 0 30.264281-24.276916 54.801117-54.220902 54.801117-29.943986 0-54.220902-24.536836-54.220902-54.801117 0-15.131629-12.108782-27.370371-27.080775-27.370371-14.971993 0-27.080775 12.238742-27.080775 27.370371 0 30.264281-24.276916 54.801117-54.220902 54.801117s-57.494459-33.68724-57.494459-63.951521l62.505589-255.842922 640.513956 0 64.508199 255.842922C895.469672 478.048747 865.796862 511.735987 835.852876 511.735987z" p-id="41537"></path></svg>